<mxfile host="app.diagrams.net" modified="2023-10-13T02:34:28.410Z" agent="Mozilla/5.0 (X11; Linux x86_64; rv:109.0) Gecko/20100101 Firefox/115.0" etag="6nMQVMuwLrn44A_fmGUq" version="22.0.4" type="device">
  <diagram name="Page-1" id="KDSnwi_WtRBWYA6NQgtj">
    <mxGraphModel dx="1434" dy="790" grid="1" gridSize="10" guides="1" tooltips="1" connect="1" arrows="1" fold="1" page="1" pageScale="1" pageWidth="850" pageHeight="1100" math="0" shadow="0">
      <root>
        <mxCell id="0" />
        <mxCell id="1" parent="0" />
        <mxCell id="kvysxvHulO6KygtDhMEB-15" value="" style="rounded=1;whiteSpace=wrap;html=1;" vertex="1" parent="1">
          <mxGeometry x="10" y="60" width="660" height="160" as="geometry" />
        </mxCell>
        <mxCell id="kvysxvHulO6KygtDhMEB-1" value="ID3/file identifier = &quot;ID3&quot;" style="rounded=0;whiteSpace=wrap;html=1;fillColor=#dae8fc;strokeColor=#6c8ebf;" vertex="1" parent="1">
          <mxGeometry x="40" y="120" width="140" height="40" as="geometry" />
        </mxCell>
        <mxCell id="kvysxvHulO6KygtDhMEB-12" value="&lt;div align=&quot;left&quot;&gt;&lt;font style=&quot;font-size: 18px;&quot;&gt;ID3v2 - 10 bytes&lt;/font&gt;&lt;br&gt;&lt;/div&gt;" style="text;html=1;strokeColor=none;fillColor=none;align=center;verticalAlign=middle;whiteSpace=wrap;rounded=0;" vertex="1" parent="1">
          <mxGeometry x="40" y="80" width="140" height="30" as="geometry" />
        </mxCell>
        <mxCell id="kvysxvHulO6KygtDhMEB-16" value="ID3 version = 0xyy 0xzz" style="rounded=0;whiteSpace=wrap;html=1;fillColor=#b1ddf0;strokeColor=#10739e;" vertex="1" parent="1">
          <mxGeometry x="180" y="120" width="150" height="40" as="geometry" />
        </mxCell>
        <mxCell id="kvysxvHulO6KygtDhMEB-17" value="ID3 flags = %abcd0000" style="rounded=0;whiteSpace=wrap;html=1;fillColor=#b0e3e6;strokeColor=#0e8088;" vertex="1" parent="1">
          <mxGeometry x="330" y="120" width="140" height="40" as="geometry" />
        </mxCell>
        <mxCell id="kvysxvHulO6KygtDhMEB-18" value="ID3 size = 4 * %0xxxxxxx" style="rounded=0;whiteSpace=wrap;html=1;fillColor=#d0cee2;strokeColor=#56517e;" vertex="1" parent="1">
          <mxGeometry x="470" y="120" width="160" height="40" as="geometry" />
        </mxCell>
        <mxCell id="kvysxvHulO6KygtDhMEB-19" value="3 bytes" style="text;html=1;strokeColor=none;fillColor=none;align=center;verticalAlign=middle;whiteSpace=wrap;rounded=0;" vertex="1" parent="1">
          <mxGeometry x="70" y="170" width="60" height="30" as="geometry" />
        </mxCell>
        <mxCell id="kvysxvHulO6KygtDhMEB-20" value="2 bytes" style="text;html=1;strokeColor=none;fillColor=none;align=center;verticalAlign=middle;whiteSpace=wrap;rounded=0;" vertex="1" parent="1">
          <mxGeometry x="225" y="170" width="60" height="30" as="geometry" />
        </mxCell>
        <mxCell id="kvysxvHulO6KygtDhMEB-21" value="1 bytes" style="text;html=1;strokeColor=none;fillColor=none;align=center;verticalAlign=middle;whiteSpace=wrap;rounded=0;" vertex="1" parent="1">
          <mxGeometry x="370" y="170" width="60" height="30" as="geometry" />
        </mxCell>
        <mxCell id="kvysxvHulO6KygtDhMEB-22" value="4 bytes" style="text;html=1;strokeColor=none;fillColor=none;align=center;verticalAlign=middle;whiteSpace=wrap;rounded=0;" vertex="1" parent="1">
          <mxGeometry x="520" y="170" width="60" height="30" as="geometry" />
        </mxCell>
      </root>
    </mxGraphModel>
  </diagram>
</mxfile>
